<svg width="379" height="40" viewBox="0 0 379 40" fill="none" xmlns="http://www.w3.org/2000/svg">
<path d="M367.862 6.04407C364.639 9.38001 362.044 12.2842 362.044 12.4805C362.044 12.6767 362.359 12.9907 362.712 13.1084C363.184 13.3046 364.403 12.3627 367.154 9.61549L370.928 5.88708L372.186 7.18221L373.444 8.47734L366.368 15.5024L359.292 22.5668L358.035 21.3109L356.777 20.055L358.428 18.2889C359.45 17.19 359.961 16.2874 359.843 15.8949C359.41 14.8353 358.31 15.267 356.305 17.347C354.693 19.0346 354.064 20.055 353.16 22.6845C352.295 25.1178 351.627 26.2952 350.487 27.3941C349.662 28.179 348.915 28.65 348.797 28.4537C348.718 28.2183 348.089 27.0016 347.382 25.7065C345.455 22.0958 344.944 22.3706 343.018 28.1398C342.114 30.7693 341.289 33.0063 341.171 33.1633C341.053 33.281 340.463 32.2999 339.873 30.9655L338.812 28.5322L340.188 25.3533C343.057 18.6814 344.473 11.931 343.608 8.79131C342.94 6.27954 341.603 5.29839 338.851 5.29839C336.257 5.29839 335.431 5.84784 334.291 8.16337C333.741 9.30152 333.584 10.5182 333.623 13.5401C333.623 17.6217 333.859 18.9561 335.549 25.0001L336.571 28.6107L333.977 33.595C331.304 38.6578 331.068 39.4035 331.815 39.8744C332.483 40.2669 333.269 39.2465 335.51 34.8901L337.633 30.8085L338.458 32.7708C338.93 33.8305 339.559 35.3219 339.873 36.0283C340.266 37.0487 340.62 37.3234 341.249 37.2057C341.996 37.1272 342.389 36.3423 343.647 32.5746C344.473 30.1021 345.259 27.7866 345.377 27.4726C345.534 27.0801 345.966 27.6296 346.753 29.1209C347.382 30.3376 348.089 31.4757 348.325 31.5934C348.561 31.7504 349.701 30.9263 350.959 29.7096C352.806 27.9043 353.828 27.2764 356.541 26.2559L359.882 25.0393L367.547 17.504C371.754 13.3831 373.798 11.4601 372.107 13.2262C369.985 15.3847 369.081 16.6013 369.238 17.0331C369.395 17.3863 369.71 17.661 369.985 17.661C370.299 17.661 372.186 15.9734 374.23 13.9326L377.925 10.2434L377.06 9.30152L376.196 8.39885L377.572 7.06447C378.318 6.31879 378.947 5.45537 378.947 5.10216C378.947 4.43497 374.663 0.0001297 374.034 0.0001297C373.798 0.0001297 371.046 2.70813 367.862 6.04407ZM375.724 6.16181L374.859 7.06447L373.562 5.80859L372.265 4.55271L373.13 3.65004L373.994 2.74738L375.292 4.00326L376.589 5.25914L375.724 6.16181ZM340.777 7.81015C341.21 8.24187 341.682 9.22302 341.839 10.0472C342.193 12.0488 341.092 17.347 339.362 21.8996L337.908 25.6672L337.358 23.9404C335.51 17.6217 334.999 11.0676 336.218 8.75207C336.571 8.08488 337.082 7.45694 337.358 7.3392C338.497 6.86824 340.07 7.10372 340.777 7.81015ZM356.855 23.9797C356.58 24.1366 355.951 24.3721 355.479 24.4899C354.693 24.7646 354.654 24.6861 355.086 23.3517L355.479 21.9781L356.423 22.8415C357.091 23.4695 357.209 23.7834 356.855 23.9797Z" fill="#FF4F5D"/>
<path d="M62.6204 11.3814C59.0039 12.1271 56.1343 14.4426 54.4833 18.0141C53.7757 19.5839 53.6577 20.5651 53.6577 25.7063C53.6577 31.0438 53.7364 31.7895 54.6012 33.6341C55.7019 36.1459 58.1784 38.5006 60.6549 39.4426C62.0701 39.992 63.2494 40.0705 65.9224 39.9528C69.7355 39.7565 71.701 39.0109 73.5879 37.0093C74.8851 35.6357 76.2216 32.7314 76.2609 31.2793V30.2197H73.3913H70.4824L70.05 31.711C69.3817 33.8696 68.0059 35.0077 65.7259 35.2432C63.0528 35.4787 61.4804 34.6153 60.419 32.2605C59.6722 30.6906 59.5542 29.7095 59.5542 25.7063C59.5542 21.7032 59.6722 20.7221 60.419 19.1522C61.3625 17.1114 62.8563 16.091 64.979 16.091C67.9665 16.091 69.5782 17.2684 70.1286 19.9371L70.4431 21.193H73.352H76.2609V20.0941C76.2609 18.6027 74.6099 15.3061 73.2734 14.0502C70.9148 11.8524 66.1976 10.675 62.6204 11.3814Z" fill="#6A5AFE"/>
<path d="M234.523 11.3813C230.67 12.0484 227.172 15.3059 225.953 19.3483C225.678 20.2902 225.442 23.0767 225.442 25.7062C225.442 31.3969 226.15 33.8302 228.508 36.4204C231.024 39.0892 232.636 39.7564 237.235 39.9526C241.638 40.1096 244.586 39.4032 247.102 37.4801L248.438 36.4597V30.5727V24.725H242.738H237.038V27.0798V29.4346H239.594H242.149V31.7501C242.149 34.6151 241.677 35.0468 238.454 35.243C236.449 35.3608 235.859 35.243 234.719 34.4581C232.164 32.7705 231.732 31.4754 231.732 25.7062C231.732 21.4676 231.85 20.3294 232.478 19.0735C233.461 17.1112 235.152 16.0908 237.51 16.0908C239.712 16.0908 241.48 17.3467 242.149 19.4268L242.62 20.8004H245.569H248.517L248.242 19.3483C247.613 15.9338 245.136 12.9511 242.188 12.0092C239.712 11.2243 236.842 10.9888 234.523 11.3813Z" fill="#6A5AFE"/>
<path d="M1.14441e-05 25.51V39.6387H2.94825H5.89649V33.7517V27.8648H11.3999H16.9033V33.7517V39.6387H20.048H23.1928L23.1142 25.6277L22.9963 11.5775L19.9694 11.4598L16.9033 11.342V17.072V22.7627H11.3999H5.89649V17.072V11.3813H2.94825H1.14441e-05V25.51Z" fill="#6A5AFE"/>
<path d="M35.9692 12.0485C34.5541 15.6591 25.9452 39.0107 25.9452 39.2855C25.9452 39.4817 27.3604 39.6387 29.0507 39.6387H32.1562L33.1389 36.7737L34.0824 33.9479H38.9175H43.7526L44.7353 36.7737L45.6788 39.6387H48.9808H52.2828L51.4966 37.5586C51.0642 36.4597 48.7056 30.1411 46.2291 23.5477L41.7871 11.5775L38.9961 11.4598C36.6768 11.3813 36.2051 11.4598 35.9692 12.0485ZM40.6078 24.0579C41.394 26.4911 42.0623 28.6104 42.0623 28.7674C42.0623 28.9244 40.6471 29.0422 38.8782 29.0422C36.5196 29.0422 35.7727 28.9244 35.8906 28.532C36.0086 28.2965 36.6768 26.1772 37.3844 23.8224C38.1313 21.5069 38.7996 19.623 38.9175 19.623C39.0354 19.623 39.7823 21.6246 40.6078 24.0579Z" fill="#6A5AFE"/>
<path d="M79.7987 25.51V39.6387H82.9435H86.0883V35.6748C86.0883 31.6717 86.0883 31.6717 87.4248 30.2195L88.7614 28.7282L92.26 34.1834L95.7192 39.6387H99.375H102.992L101.969 37.9511C101.38 37.0484 100.083 35.0468 99.0606 33.5555C98.0385 32.0249 96.2302 29.2776 95.051 27.4331L92.8889 24.0971L97.724 18.0139C100.397 14.678 102.598 11.8522 102.598 11.656C102.598 11.499 100.947 11.3813 98.9819 11.3813L95.3261 11.4205L90.8055 17.4252L86.2849 23.3907L86.0883 17.5037L85.8918 11.5775L82.8649 11.4598L79.7987 11.342V25.51Z" fill="#6A5AFE"/>
<path d="M104.958 25.51V39.6387H107.906H110.854L110.933 30.7297L111.051 21.8208L116.358 30.7297L121.665 39.5994L124.731 39.6387H127.758V25.51V11.3813H124.809H121.861L121.783 20.408L121.665 29.4346L116.24 20.408L110.815 11.3813H107.867H104.958V25.51Z" fill="#6A5AFE"/>
<path d="M132.475 25.51V39.6387H142.106H151.737V37.2839V34.9291H145.25H138.764V31.2007V27.4723H144.268H149.771V25.1175V22.7627H144.268H138.764V19.623V16.4833H145.25H151.737V13.9323V11.3813H142.106H132.475V25.51Z" fill="#6A5AFE"/>
<path d="M152.129 11.499C152.129 11.5775 154.252 15.7376 156.846 20.7219L161.563 29.7486V34.6936V39.6387H164.512H167.46V34.7721V29.8663L172.177 20.8004C174.771 15.8554 176.894 11.656 176.894 11.5775C176.894 11.4598 175.4 11.3813 173.631 11.3813H170.329L167.46 17.7C164.826 23.4299 164.512 23.9794 164.158 23.116C163.922 22.6058 162.625 19.78 161.288 16.8758L158.851 11.5775L155.51 11.4598C153.662 11.4205 152.129 11.4205 152.129 11.499Z" fill="#6A5AFE"/>
<path d="M189.002 11.6168C188.805 11.7738 188.687 18.1317 188.687 25.7847V39.6387H194.898C200.873 39.6387 201.149 39.5994 203.429 38.5398C208.814 35.9888 211.526 29.8271 210.347 22.7627C209.522 17.6607 207.32 14.678 203.075 12.7157C200.952 11.7345 200.166 11.6168 195.016 11.4598C191.871 11.3813 189.159 11.4205 189.002 11.6168ZM200.716 17.1113C202.839 18.1317 204.057 20.5649 204.293 24.2933C204.765 31.2792 202.328 34.9291 197.139 34.9291H194.977V25.7062V16.4833H197.178C198.397 16.4833 199.969 16.758 200.716 17.1113Z" fill="#6A5AFE"/>
<path d="M214.907 11.656C214.75 11.7738 214.632 18.1317 214.632 25.7847V39.6387H217.777H220.922V25.51V11.3813H218.052C216.441 11.3813 215.025 11.499 214.907 11.656Z" fill="#6A5AFE"/>
<path d="M253.155 25.51V39.6387H256.103H259.051V25.51V11.3813H256.103H253.155V25.51Z" fill="#6A5AFE"/>
<path d="M261.803 13.9323V16.4833H266.127H270.451V28.061V39.6387H273.4H276.348V28.061V16.4833H280.672H284.996V13.9323V11.3813H273.4H261.803V13.9323Z" fill="#6A5AFE"/>
<path d="M293.095 14.0108C289.479 23.5869 283.818 39.0107 283.818 39.3247C283.818 39.4817 285.233 39.6387 286.923 39.6387H290.029L290.972 36.7737L291.955 33.9479L296.869 33.8302L301.783 33.7125L302.647 36.6952L303.552 39.6387H306.854H310.156L309.094 36.7737C308.505 35.2431 306.146 28.9244 303.866 22.7627L299.66 11.5775L296.908 11.4598L294.117 11.342L293.095 14.0108ZM299.935 28.7282C299.935 28.8852 298.52 29.0422 296.79 29.0422C295.061 29.0422 293.645 29.0029 293.645 28.9244C293.645 28.7674 296.319 20.7612 296.633 20.0155C296.83 19.5445 299.935 27.7078 299.935 28.7282Z" fill="#6A5AFE"/>
<path d="M312.513 25.51V39.6387H321.555H330.596V37.2839V34.9291H324.503H318.41V23.1552V11.3813H315.462H312.513V25.51Z" fill="#6A5AFE"/>
<path d="M360.157 14.2075C360.314 15.2672 361.454 15.6204 361.808 14.7177C362.123 13.8543 361.769 13.3441 360.825 13.3441C360.236 13.3441 360.039 13.5796 360.157 14.2075Z" fill="#FF4F5D"/>
</svg>
